<?xml version="1.0" encoding="utf-8"?>
<!-- Generator: Adobe Illustrator 24.0.2, SVG Export Plug-In . SVG Version: 6.00 Build 0)  -->
<svg version="1.1" id="Layer_1" xmlns="http://www.w3.org/2000/svg" xmlns:xlink="http://www.w3.org/1999/xlink" x="0px" y="0px"
	 viewBox="0 0 16 16" style="enable-background:new 0 0 16 16;" xml:space="preserve">
<style type="text/css">
	.st0{fill:#606060;}
	.st1{fill:#4AED88;}
</style>
<circle class="st0" cx="8" cy="8" r="8"/>
<g>
	<g>
		<path class="st1" d="M12.13,7.23c0,0.17-0.07,0.33-0.21,0.43l-0.9,0.66l-0.29,0.21c-0.15,0.11-0.35,0.12-0.5,0.03
			c-0.04-0.02-0.07-0.04-0.11-0.06l-0.11-0.09l-2.1-1.57C7.68,6.67,7.62,6.33,7.78,6.08c0.1-0.15,0.26-0.24,0.42-0.24
			c0.1,0,0.2,0.03,0.29,0.1l1.53,1.14V6.34c0-0.6-0.23-1.15-0.59-1.54S8.55,4.16,7.99,4.16c-1.08,0-1.96,0.92-2.02,2.07
			c0,0.02,0,0.05,0,0.07C5.96,6.57,5.75,6.78,5.5,6.78H5.49c-0.24,0-0.44-0.2-0.47-0.45V6.17c0-0.8,0.27-1.53,0.73-2.08
			C6.29,3.42,7.08,3,7.95,3H8.1c1.61,0,2.93,1.43,2.93,3.17v0.89l0.36-0.26c0.22-0.16,0.52-0.1,0.67,0.14
			C12.11,7.03,12.13,7.13,12.13,7.23z"/>
		<path class="st1" d="M3.8,8.77c0-0.17,0.07-0.33,0.21-0.43l0.9-0.66L5.2,7.47c0.15-0.11,0.35-0.12,0.5-0.03
			C5.73,7.46,5.77,7.48,5.8,7.5l0.11,0.09l2.1,1.57c0.23,0.17,0.29,0.51,0.13,0.76c-0.1,0.15-0.26,0.24-0.42,0.24
			c-0.1,0-0.2-0.03-0.29-0.1L5.92,8.92l0,0.74c0,0.6,0.23,1.15,0.59,1.54s0.87,0.64,1.43,0.64c1.08,0,1.96-0.92,2.02-2.07
			c0-0.02,0-0.05,0-0.07c0.02-0.27,0.22-0.48,0.47-0.48l0.01,0c0.24,0,0.44,0.2,0.47,0.45l0,0.17c0,0.8-0.28,1.53-0.73,2.08
			C9.64,12.58,8.85,13,7.98,13l-0.14,0c-1.61,0-2.93-1.43-2.93-3.17l0-0.89L4.55,9.2C4.33,9.36,4.03,9.3,3.88,9.06
			C3.82,8.97,3.8,8.87,3.8,8.77z"/>
	</g>
	<path class="st1" d="M4.78,11.93c0.23,0.25,0.22,0.67-0.04,0.9c-0.23,0.2-0.57,0.16-0.79-0.06L0.33,8.89
		c-0.44-0.48-0.44-1.25,0-1.72l0,0l3.7-3.96c0.23-0.25,0.63-0.24,0.84,0.04C5.06,3.5,5.02,3.87,4.81,4.1l-3.4,3.64
		c-0.15,0.16-0.15,0.43,0,0.59L4.78,11.93z"/>
	<path class="st1" d="M11.22,4.07C10.98,3.82,11,3.4,11.26,3.17c0.23-0.2,0.57-0.16,0.79,0.06l3.62,3.88c0.44,0.48,0.44,1.25,0,1.72
		h0l-3.7,3.96c-0.23,0.25-0.63,0.24-0.84-0.04c-0.19-0.25-0.15-0.62,0.06-0.84l3.4-3.64c0.15-0.16,0.15-0.43,0-0.59L11.22,4.07z"/>
</g>
</svg>
