<?xml version="1.0" encoding="utf-8"?>
<!-- Generator: Adobe Illustrator 24.0.0, SVG Export Plug-In . SVG Version: 6.00 Build 0)  -->
<svg version="1.1" id="Layer_1" xmlns="http://www.w3.org/2000/svg" xmlns:xlink="http://www.w3.org/1999/xlink" x="0px" y="0px"
	 viewBox="0 0 151 91.3" style="enable-background:new 0 0 151 91.3;" xml:space="preserve">
<style type="text/css">
	.st0{fill:#4AED88;}
	.st1{display:none;fill:#4AED88;enable-background:new    ;}
	.st2{font-family:'ArialRoundedMTBold';}
	.st3{font-size:94.1913px;}
</style>
<image style="display:none;overflow:visible;enable-background:new    ;" width="500" height="501" xlink:href="CC74C372.jpeg"  transform="matrix(0.998 0 0 0.998 -16.4653 -195.0714)">
</image>
<g>
	<g>
		<path class="st0" d="M108.6,42.4c0,1.2-0.6,2.3-1.6,3l-6.9,4.5l-2.3,1.5c-1.2,0.8-2.7,0.8-3.9,0.2c-0.3-0.1-0.6-0.3-0.8-0.4
			l-0.9-0.6L75.9,39.7c-1.8-1.2-2.2-3.5-1-5.3c0.8-1.1,2-1.6,3.2-1.6c0.8,0,1.6,0.2,2.2,0.7l11.8,7.9v-5.1c0-4.1-1.8-7.9-4.6-10.6
			c-2.8-2.7-6.8-4.4-11-4.4c-8.3,0-15.2,6.4-15.6,14.3c0,0.2,0,0.3,0,0.5c-0.1,1.8-1.7,3.3-3.7,3.3h-0.1c-1.9,0-3.4-1.3-3.6-3.1
			v-1.2c0-5.5,2.1-10.5,5.6-14.4c4.2-4.6,10.3-7.5,17-7.5h1.1c12.5,0,22.7,9.8,22.7,21.9v6.1l2.8-1.8c1.7-1.1,4-0.7,5.2,1
			C108.4,41,108.6,41.7,108.6,42.4z"/>
		<path class="st0" d="M44.1,53c0-1.2,0.6-2.3,1.6-3l7-4.5l2.3-1.5c1.2-0.8,2.7-0.8,3.9-0.2c0.3,0.1,0.6,0.3,0.8,0.4l0.9,0.6
			l16.3,10.8c1.8,1.2,2.2,3.5,1,5.3c-0.8,1.1-2,1.6-3.2,1.6c-0.8,0-1.6-0.2-2.2-0.7l-11.8-7.9v5.1c0,4.1,1.8,7.9,4.6,10.7
			c2.8,2.7,6.8,4.4,11,4.4c8.3,0,15.2-6.4,15.6-14.3c0-0.2,0-0.3,0-0.5c0.1-1.8,1.7-3.3,3.7-3.3h0.1c1.9,0,3.4,1.3,3.6,3.1v1.2
			c0,5.5-2.1,10.5-5.6,14.4c-4.2,4.6-10.3,7.5-17,7.5h-1.1c-12.5,0-22.7-9.8-22.7-21.9v-6.1L49.9,56c-1.7,1.1-4,0.7-5.2-1
			C44.3,54.4,44.1,53.7,44.1,53z"/>
	</g>
</g>
<path class="st0" d="M41.3,74.8c1.8,1.7,1.7,4.6-0.3,6.2c-1.8,1.4-4.5,1.1-6.1-0.4l-28-26.8c-3.4-3.3-3.4-8.6,0-11.9l0,0l28.6-27.3
	c1.8-1.7,4.8-1.6,6.5,0.3c1.5,1.7,1.2,4.3-0.5,5.8L15.3,45.9c-1.2,1.1-1.2,2.9,0,4.1L41.3,74.8z"/>
<path class="st0" d="M109.8,20.6c-1.8-1.7-1.7-4.6,0.3-6.2c1.8-1.4,4.4-1.1,6.1,0.4l28,26.8c3.4,3.3,3.4,8.6,0,11.9l0,0l-28.6,27.3
	c-1.8,1.7-4.8,1.6-6.5-0.3c-1.5-1.7-1.2-4.3,0.5-5.8l26.3-25.1c1.2-1.1,1.2-2.9,0-4.1L109.8,20.6z"/>
<text transform="matrix(0.8934 0 0 1 2.8936 84.2393)" class="st1 st2 st3">&lt;CodeFlow/&gt;</text>
</svg>
